<?xml version="1.0" standalone="no"?>
<!DOCTYPE svg PUBLIC "-//W3C//DTD SVG 20010904//EN"
 "http://www.w3.org/TR/2001/REC-SVG-20010904/DTD/svg10.dtd">
<svg version="1.0" xmlns="http://www.w3.org/2000/svg"
 width="400.000000pt" height="400.000000pt" viewBox="0 0 400.000000 400.000000"
 preserveAspectRatio="xMidYMid meet">
<metadata>
Created by potrace 1.14, written by Peter Selinger 2001-2017
</metadata>
<g transform="translate(0.000000,400.000000) scale(0.100000,-0.100000)"
fill="#000000" stroke="none">
<path d="M1934 3435 c-73 -16 -140 -48 -309 -152 -11 -7 -27 -15 -35 -20 -8
-4 -69 -38 -135 -76 -66 -39 -133 -78 -150 -87 -470 -269 -488 -282 -542 -361
-63 -92 -63 -91 -61 -759 l3 -605 31 -65 c30 -64 93 -134 150 -169 16 -10 54
-31 84 -48 30 -17 111 -63 180 -103 69 -40 145 -84 170 -98 25 -14 77 -44 115
-67 39 -23 88 -52 110 -63 22 -12 58 -33 80 -47 22 -14 47 -28 55 -32 8 -4 47
-26 87 -49 180 -107 307 -103 498 17 22 14 47 29 55 33 8 4 33 18 55 31 22 14
51 30 65 37 14 7 36 19 50 29 14 9 45 27 70 41 327 184 594 345 629 381 23 23
57 71 74 107 l32 65 3 605 c2 530 0 613 -14 660 -40 134 -105 189 -449 379
-27 15 -117 67 -200 115 -142 83 -183 107 -265 154 -19 10 -73 42 -120 69 -98
56 -129 70 -185 78 -22 4 -47 8 -55 10 -8 2 -43 -3 -76 -10z"/>
</g>
</svg>
